<?xml version="1.0" encoding="UTF-8"?>
<!-- Generated by Pixelmator Pro 3.3.2 -->
<svg width="3000" height="3000" viewBox="0 0 3000 3000" xmlns="http://www.w3.org/2000/svg" xmlns:xlink="http://www.w3.org/1999/xlink">
    <g id="OSIRIS">
        <text id="osiris" visibility="hidden" xml:space="preserve" x="160.925202" y="1437" font-family="Cyberspace Raceway" font-size="561.477768" fill="#f515ac" letter-spacing="-16.844333">osiris</text>
        <text id="text1" visibility="hidden" xml:space="preserve" x="160.925202" y="1438" font-family="Cyberspace Raceway" font-size="561.477768" fill="#992393" letter-spacing="-16.844333">osiris</text>
    </g>
    <g id="DREAMS">
        <text id="text2" visibility="hidden" xml:space="preserve" x="84.512837" y="2084" font-family="Cyberspace Raceway" font-size="495.60411" fill="#2359f0" letter-spacing="-14.868123">DREAMS</text>
        <text id="text3" visibility="hidden" xml:space="preserve" x="84.512837" y="2083" font-family="Cyberspace Raceway" font-size="495.60411" fill="#5ec4ff" letter-spacing="-14.868123">DREAMS</text>
    </g>
    <g id="Vectors">
        <g id="OSIRIS-copy">
            <path id="path1" fill="#f515ac" fill-rule="evenodd" stroke="none" d="M 2357.376709 1507 L 2357.376709 1341.956299 L 2654.702148 1341.956299 L 2654.702148 1308.920044 L 2423.448975 1308.920044 L 2324.477539 1209.811523 L 2324.477539 1044.630737 L 2423.448975 945.522217 L 2786.84668 945.522217 L 2786.84668 1110.703125 L 2489.52124 1110.703125 L 2489.52124 1143.739258 L 2720.774414 1143.739258 L 2819.883057 1242.847778 L 2819.883057 1408.028564 L 2720.774414 1507 Z M 2011.09729 1507 L 2011.09729 1341.956299 L 2077.032471 1341.956299 L 2077.032471 1110.703125 L 2011.09729 1110.703125 L 2011.09729 945.522217 L 2308.285645 945.522217 L 2308.285645 1110.703125 L 2242.213379 1110.703125 L 2242.213379 1341.956299 L 2308.285645 1341.956299 L 2308.285645 1507 Z M 1829.724609 1143.739258 L 1829.724609 1110.703125 L 1664.543701 1110.703125 L 1664.543701 1143.739258 Z M 1499.5 1507 L 1499.5 945.522217 L 1895.796875 945.522217 L 1994.905396 1044.630737 L 1994.905396 1176.775391 L 1961.869263 1209.811523 L 1961.732178 1209.811523 L 1945.282593 1226.261108 L 1994.905396 1275.883911 L 1994.905396 1507 L 1829.724609 1507 L 1829.724609 1308.920044 L 1664.543701 1308.920044 L 1664.543701 1507 Z M 1186.119751 1507 L 1186.119751 1341.956299 L 1252.055054 1341.956299 L 1252.055054 1110.703125 L 1186.119751 1110.703125 L 1186.119751 945.522217 L 1483.308105 945.522217 L 1483.308105 1110.703125 L 1417.23584 1110.703125 L 1417.23584 1341.956299 L 1483.308105 1341.956299 L 1483.308105 1507 Z M 707.42157 1507 L 707.42157 1341.956299 L 1004.74707 1341.956299 L 1004.74707 1308.920044 L 773.493896 1308.920044 L 674.522461 1209.811523 L 674.522461 1044.630737 L 773.493896 945.522217 L 1136.891724 945.522217 L 1136.891724 1110.703125 L 839.566223 1110.703125 L 839.566223 1143.739258 L 1070.819458 1143.739258 L 1169.927856 1242.847778 L 1169.927856 1408.028564 L 1070.819458 1507 Z M 493.149811 1341.956299 L 493.149811 1110.703125 L 327.968964 1110.703125 L 327.968964 1341.956299 Z M 261.896637 1507 L 162.925201 1408.028564 L 162.925201 1044.630737 L 261.896637 945.522217 L 559.222107 945.522217 L 658.330627 1044.630737 L 658.330627 1408.028564 L 559.222107 1507 Z"/>
            <path id="path2" fill="#992393" fill-rule="evenodd" stroke="none" d="M 2357.376709 1507 L 2357.376709 1474.100952 L 2753.810547 1474.100952 L 2720.774414 1507 Z M 2357.376709 1408.028564 L 2357.376709 1374.992432 L 2819.883057 1374.992432 L 2819.883057 1408.028564 Z M 2654.702148 1341.956299 L 2654.702148 1308.920044 L 2819.883057 1308.920044 L 2819.883057 1341.956299 Z M 2390.412842 1275.883911 L 2357.376709 1242.847778 L 2819.883057 1242.847778 L 2819.883057 1275.883911 Z M 2324.477539 1209.811523 L 2324.477539 1044.630737 L 2423.448975 945.522217 L 2786.84668 945.522217 L 2786.84668 1110.703125 L 2489.52124 1110.703125 L 2489.52124 1143.739258 L 2720.774414 1143.739258 L 2786.84668 1209.811523 Z M 2011.09729 1507 L 2011.09729 1474.100952 L 2308.285645 1474.100952 L 2308.285645 1507 Z M 2011.09729 1408.028564 L 2011.09729 1374.992432 L 2308.285645 1374.992432 L 2308.285645 1408.028564 Z M 2077.032471 1341.956299 L 2077.032471 1308.920044 L 2242.213379 1308.920044 L 2242.213379 1341.956299 Z M 2077.032471 1275.883911 L 2077.032471 1242.847778 L 2242.213379 1242.847778 L 2242.213379 1275.883911 Z M 2077.032471 1209.811523 L 2077.032471 1110.703125 L 2011.09729 1110.703125 L 2011.09729 945.522217 L 2308.285645 945.522217 L 2308.285645 1110.703125 L 2242.213379 1110.703125 L 2242.213379 1209.811523 Z M 1499.5 1507 L 1499.5 1474.100952 L 1664.543701 1474.100952 L 1664.543701 1507 Z M 1829.724609 1507 L 1829.724609 1474.100952 L 1994.905396 1474.100952 L 1994.905396 1507 Z M 1499.5 1408.028564 L 1499.5 1374.992432 L 1664.543701 1374.992432 L 1664.543701 1408.028564 Z M 1829.724609 1408.028564 L 1829.724609 1374.992432 L 1994.905396 1374.992432 L 1994.905396 1408.028564 Z M 1499.5 1341.956299 L 1499.5 1308.920044 L 1664.543701 1308.920044 L 1664.543701 1341.956299 Z M 1829.724609 1341.956299 L 1829.724609 1308.920044 L 1994.905396 1308.920044 L 1994.905396 1341.956299 Z M 1499.5 1275.883911 L 1499.5 1242.847778 L 1961.869263 1242.847778 L 1994.905396 1275.883911 Z M 1829.724609 1143.739258 L 1829.724609 1110.703125 L 1664.543701 1110.703125 L 1664.543701 1143.739258 Z M 1499.5 1209.811523 L 1499.5 945.522217 L 1895.796875 945.522217 L 1994.905396 1044.630737 L 1994.905396 1176.775391 L 1961.869263 1209.811523 Z M 1186.119751 1507 L 1186.119751 1474.100952 L 1483.308105 1474.100952 L 1483.308105 1507 Z M 1186.119751 1408.028564 L 1186.119751 1374.992432 L 1483.308105 1374.992432 L 1483.308105 1408.028564 Z M 1252.055054 1341.956299 L 1252.055054 1308.920044 L 1417.23584 1308.920044 L 1417.23584 1341.956299 Z M 1252.055054 1275.883911 L 1252.055054 1242.847778 L 1417.23584 1242.847778 L 1417.23584 1275.883911 Z M 1252.055054 1209.811523 L 1252.055054 1110.703125 L 1186.119751 1110.703125 L 1186.119751 945.522217 L 1483.308105 945.522217 L 1483.308105 1110.703125 L 1417.23584 1110.703125 L 1417.23584 1209.811523 Z M 707.42157 1507 L 707.42157 1474.100952 L 1103.855591 1474.100952 L 1070.819458 1507 Z M 707.42157 1408.028564 L 707.42157 1374.992432 L 1169.927856 1374.992432 L 1169.927856 1408.028564 Z M 1004.74707 1341.956299 L 1004.74707 1308.920044 L 1169.927856 1308.920044 L 1169.927856 1341.956299 Z M 740.457703 1275.883911 L 707.42157 1242.847778 L 1169.927856 1242.847778 L 1169.927856 1275.883911 Z M 674.522461 1209.811523 L 674.522461 1044.630737 L 773.493896 945.522217 L 1136.891724 945.522217 L 1136.891724 1110.703125 L 839.566223 1110.703125 L 839.566223 1143.739258 L 1070.819458 1143.739258 L 1136.891724 1209.811523 Z M 261.896637 1507 L 228.860458 1474.100952 L 592.258301 1474.100952 L 559.222107 1507 Z M 162.925201 1408.028564 L 162.925201 1374.992432 L 658.330627 1374.992432 L 658.330627 1408.028564 Z M 162.925201 1341.956299 L 162.925201 1308.920044 L 327.968964 1308.920044 L 327.968964 1341.956299 Z M 493.149811 1341.956299 L 493.149811 1308.920044 L 658.330627 1308.920044 L 658.330627 1341.956299 Z M 162.925201 1275.883911 L 162.925201 1242.847778 L 327.968964 1242.847778 L 327.968964 1275.883911 Z M 493.149811 1275.883911 L 493.149811 1242.847778 L 658.330627 1242.847778 L 658.330627 1275.883911 Z M 162.925201 1209.811523 L 162.925201 1044.630737 L 261.896637 945.522217 L 559.222107 945.522217 L 658.330627 1044.630737 L 658.330627 1209.811523 L 493.149811 1209.811523 L 493.149811 1110.703125 L 327.968964 1110.703125 L 327.968964 1209.811523 Z"/>
        </g>
        <g id="DREAMS-copy">
            <path id="path3" fill="#2359f0" fill-rule="evenodd" stroke="none" d="M 2434.214844 2055 L 2434.214844 1917.333984 L 2682.219727 1917.333984 L 2682.219727 1889.777954 L 2489.327148 1889.777954 L 2406.773193 1807.109741 L 2406.773193 1669.329346 L 2489.327148 1586.661133 L 2792.443848 1586.661133 L 2792.443848 1724.441528 L 2544.439209 1724.441528 L 2544.439209 1751.997559 L 2737.331787 1751.997559 L 2820 1834.665771 L 2820 1972.446045 L 2737.331787 2055 Z M 1869.930542 2055 L 1869.930542 1669.329346 L 1952.484497 1586.661133 L 2090.264893 1586.661133 L 2117.820801 1614.217163 L 2117.820801 1614.331543 L 2131.541748 1628.05249 L 2172.933105 1586.661133 L 2310.713379 1586.661133 L 2393.267334 1669.329346 L 2393.267334 2055 L 2255.601074 2055 L 2255.601074 1724.441528 L 2200.489014 1724.441528 L 2200.489014 2055 L 2062.70874 2055 L 2062.70874 1724.441528 L 2007.596558 1724.441528 L 2007.596558 2055 Z M 1718.644287 1751.997559 L 1718.644287 1724.441528 L 1580.864014 1724.441528 L 1580.864014 1751.997559 Z M 1443.197876 2055 L 1443.197876 1669.329346 L 1525.751831 1586.661133 L 1773.75647 1586.661133 L 1856.424683 1669.329346 L 1856.424683 2055 L 1718.644287 2055 L 1718.644287 1889.777954 L 1580.864014 1889.777954 L 1580.864014 2055 Z M 1016.465271 2055 L 1016.465271 1586.661133 L 1429.692017 1586.661133 L 1429.692017 1724.441528 L 1154.131348 1724.441528 L 1154.131348 1751.997559 L 1319.467773 1751.997559 L 1319.467773 1889.777954 L 1154.131348 1889.777954 L 1154.131348 1917.333984 L 1429.692017 1917.333984 L 1429.692017 2055 Z M 865.179077 1751.997559 L 865.179077 1724.441528 L 727.398682 1724.441528 L 727.398682 1751.997559 Z M 589.732605 2055 L 589.732605 1586.661133 L 920.291138 1586.661133 L 1002.959351 1669.329346 L 1002.959351 1779.553589 L 975.40332 1807.109741 L 975.289001 1807.109741 L 961.568115 1820.830566 L 1002.959351 1862.221802 L 1002.959351 2055 L 865.179077 2055 L 865.179077 1889.777954 L 727.398682 1889.777954 L 727.398682 2055 Z M 438.446381 1917.333984 L 438.446381 1724.441528 L 300.666016 1724.441528 L 300.666016 1917.333984 Z M 163 2055 L 163 1586.661133 L 493.558533 1586.661133 L 576.226746 1669.329346 L 576.226746 1972.446045 L 493.558533 2055 Z"/>
            <path id="path4" fill="#5ec4ff" fill-rule="evenodd" stroke="none" d="M 2434.084229 2055 L 2434.084229 2027.578125 L 2764.517822 2027.578125 L 2736.981689 2055 Z M 2434.084229 1972.505859 L 2434.084229 1944.969727 L 2819.590088 1944.969727 L 2819.590088 1972.505859 Z M 2681.909424 1917.433594 L 2681.909424 1889.897461 L 2819.590088 1889.897461 L 2819.590088 1917.433594 Z M 2461.620361 1862.361328 L 2434.084229 1834.825195 L 2819.590088 1834.825195 L 2819.590088 1862.361328 Z M 2406.662354 1807.289063 L 2406.662354 1669.608398 L 2489.156494 1587 L 2792.053955 1587 L 2792.053955 1724.680664 L 2544.22876 1724.680664 L 2544.22876 1752.216797 L 2736.981689 1752.216797 L 2792.053955 1807.289063 Z M 1870.208252 2055 L 1870.208252 2027.578125 L 2007.774658 2027.578125 L 2007.774658 2055 Z M 2062.846924 2055 L 2062.846924 2027.578125 L 2200.527588 2027.578125 L 2200.527588 2055 Z M 2255.599854 2055 L 2255.599854 2027.578125 L 2393.16626 2027.578125 L 2393.16626 2055 Z M 1870.208252 1972.505859 L 1870.208252 1944.969727 L 2007.774658 1944.969727 L 2007.774658 1972.505859 Z M 2062.846924 1972.505859 L 2062.846924 1944.969727 L 2200.527588 1944.969727 L 2200.527588 1972.505859 Z M 2255.599854 1972.505859 L 2255.599854 1944.969727 L 2393.16626 1944.969727 L 2393.16626 1972.505859 Z M 1870.208252 1917.433594 L 1870.208252 1889.897461 L 2007.774658 1889.897461 L 2007.774658 1917.433594 Z M 2062.846924 1917.433594 L 2062.846924 1889.897461 L 2200.527588 1889.897461 L 2200.527588 1917.433594 Z M 2255.599854 1917.433594 L 2255.599854 1889.897461 L 2393.16626 1889.897461 L 2393.16626 1917.433594 Z M 1870.208252 1862.361328 L 1870.208252 1834.825195 L 2007.774658 1834.825195 L 2007.774658 1862.361328 Z M 2062.846924 1862.361328 L 2062.846924 1834.825195 L 2200.527588 1834.825195 L 2200.527588 1862.361328 Z M 2255.599854 1862.361328 L 2255.599854 1834.825195 L 2393.16626 1834.825195 L 2393.16626 1862.361328 Z M 1870.208252 1807.289063 L 1870.208252 1669.608398 L 1952.702393 1587 L 2090.383057 1587 L 2117.919189 1614.536133 L 2117.919189 1614.650513 L 2131.630127 1628.36145 L 2172.991455 1587 L 2310.671875 1587 L 2393.16626 1669.608398 L 2393.16626 1807.289063 L 2255.599854 1807.289063 L 2255.599854 1724.680664 L 2200.527588 1724.680664 L 2200.527588 1807.289063 L 2062.846924 1807.289063 L 2062.846924 1724.680664 L 2007.774658 1724.680664 L 2007.774658 1807.289063 Z M 1443.784424 2055 L 1443.784424 2027.578125 L 1581.35083 2027.578125 L 1581.35083 2055 Z M 1719.031494 2055 L 1719.031494 2027.578125 L 1856.712158 2027.578125 L 1856.712158 2055 Z M 1443.784424 1972.505859 L 1443.784424 1944.969727 L 1581.35083 1944.969727 L 1581.35083 1972.505859 Z M 1719.031494 1972.505859 L 1719.031494 1944.969727 L 1856.712158 1944.969727 L 1856.712158 1972.505859 Z M 1443.784424 1917.433594 L 1443.784424 1889.897461 L 1581.35083 1889.897461 L 1581.35083 1917.433594 Z M 1719.031494 1917.433594 L 1719.031494 1889.897461 L 1856.712158 1889.897461 L 1856.712158 1917.433594 Z M 1443.784424 1862.361328 L 1443.784424 1834.825195 L 1856.712158 1834.825195 L 1856.712158 1862.361328 Z M 1719.031494 1752.216797 L 1719.031494 1724.680664 L 1581.35083 1724.680664 L 1581.35083 1752.216797 Z M 1443.784424 1807.289063 L 1443.784424 1669.608398 L 1526.278564 1587 L 1774.10376 1587 L 1856.712158 1669.608398 L 1856.712158 1807.289063 Z M 1017.360535 2055 L 1017.360535 2027.578125 L 1430.28833 2027.578125 L 1430.28833 2055 Z M 1017.360535 1972.505859 L 1017.360535 1944.969727 L 1430.28833 1944.969727 L 1430.28833 1972.505859 Z M 1017.360535 1917.433594 L 1017.360535 1889.897461 L 1154.927002 1889.897461 L 1154.927002 1917.433594 Z M 1017.360535 1862.361328 L 1017.360535 1834.825195 L 1320.143799 1834.825195 L 1320.143799 1862.361328 Z M 1017.360535 1807.289063 L 1017.360535 1587 L 1430.28833 1587 L 1430.28833 1724.680664 L 1154.927002 1724.680664 L 1154.927002 1752.216797 L 1320.143799 1752.216797 L 1320.143799 1807.289063 Z M 590.936646 2055 L 590.936646 2027.578125 L 728.503113 2027.578125 L 728.503113 2055 Z M 866.183777 2055 L 866.183777 2027.578125 L 1003.86438 2027.578125 L 1003.86438 2055 Z M 590.936646 1972.505859 L 590.936646 1944.969727 L 728.503113 1944.969727 L 728.503113 1972.505859 Z M 866.183777 1972.505859 L 866.183777 1944.969727 L 1003.86438 1944.969727 L 1003.86438 1972.505859 Z M 590.936646 1917.433594 L 590.936646 1889.897461 L 728.503113 1889.897461 L 728.503113 1917.433594 Z M 866.183777 1917.433594 L 866.183777 1889.897461 L 1003.86438 1889.897461 L 1003.86438 1917.433594 Z M 590.936646 1862.361328 L 590.936646 1834.825195 L 976.328308 1834.825195 L 1003.86438 1862.361328 Z M 866.183777 1752.216797 L 866.183777 1724.680664 L 728.503113 1724.680664 L 728.503113 1752.216797 Z M 590.936646 1807.289063 L 590.936646 1587 L 921.255981 1587 L 1003.86438 1669.608398 L 1003.86438 1779.75293 L 976.328308 1807.289063 Z M 164.512833 2055 L 164.512833 2027.578125 L 522.368286 2027.578125 L 494.832184 2055 Z M 164.512833 1972.505859 L 164.512833 1944.969727 L 577.440552 1944.969727 L 577.440552 1972.505859 Z M 164.512833 1917.433594 L 164.512833 1889.897461 L 302.079254 1889.897461 L 302.079254 1917.433594 Z M 439.759888 1917.433594 L 439.759888 1889.897461 L 577.440552 1889.897461 L 577.440552 1917.433594 Z M 164.512833 1862.361328 L 164.512833 1834.825195 L 302.079254 1834.825195 L 302.079254 1862.361328 Z M 439.759888 1862.361328 L 439.759888 1834.825195 L 577.440552 1834.825195 L 577.440552 1862.361328 Z M 164.512833 1807.289063 L 164.512833 1587 L 494.832184 1587 L 577.440552 1669.608398 L 577.440552 1807.289063 L 439.759888 1807.289063 L 439.759888 1724.680664 L 302.079254 1724.680664 L 302.079254 1807.289063 Z"/>
        </g>
    </g>
</svg>
